# xmcd
#
# Track frame offsets:
#  150
#  12224
#  24374
#  35926
#  48333
#  60934
#  73651
#  78180
#  89800
#  100004
#  110249
#  121651
#  135077
#  146587
#  159495
#  171270
#
# Disc length: 2391 seconds
#
# Revision: 0
# Processed by: cddbd v1.5.2PL0 Copyright (c) Steve Scherf et al.
# Submitted via: AltoMP3_Maker 3.0
#
DISCID=cd095510
DTITLE=Various Artist - Country Classics
DYEAR=1900
DGENRE=
TTITLE0=I Walk The Line
TTITLE1=Your Cheatin" Heart
TTITLE2=Walkin" After Midnight
TTITLE3=Moonlight Gambler
TTITLE4=Bimbo
TTITLE5=A Satisfied Mind
TTITLE6=Where My House Lives
TTITLE7=Calico Silver
TTITLE8=Sally Was A Good Old Girl
TTITLE9=Anytime You're Feeling Lonely
TTITLE10=I Cried Again
TTITLE11=A Castle In The Sky
TTITLE12=Sure To Fall
TTITLE13=Blues Stay Away From Me
TTITLE14=Ko Ko Mo (I Love You So)
TTITLE15=Californian Zephyr
EXTD=
EXTT0=
EXTT1=
EXTT2=
EXTT3=
EXTT4=
EXTT5=
EXTT6=
EXTT7=
EXTT8=
EXTT9=
EXTT10=
EXTT11=
EXTT12=
EXTT13=
EXTT14=
EXTT15=
PLAYORDER=
